<svg xmlns="http://www.w3.org/2000/svg" width="35" height="91" viewBox="0 0 35 91" fill="none">
  <g filter="url(#filter0_d_1_2)">
    <path d="M17.5 0C8.38 0 1 7.38 1 16.5C1 25.62 17.5 50 17.5 50C17.5 50 34 25.62 34 16.5C34 7.38 26.62 0 17.5 0ZM17.5 22.5C14.18 22.5 11.5 19.82 11.5 16.5C11.5 13.18 14.18 10.5 17.5 10.5C20.82 10.5 23.5 13.18 23.5 16.5C23.5 19.82 20.82 22.5 17.5 22.5Z" fill="#3B82F6"/>
    <path d="M17.5 0C8.38 0 1 7.38 1 16.5C1 25.62 17.5 50 17.5 50C17.5 50 34 25.62 34 16.5C34 7.38 26.62 0 17.5 0ZM17.5 22.5C14.18 22.5 11.5 19.82 11.5 16.5C11.5 13.18 14.18 10.5 17.5 10.5C20.82 10.5 23.5 13.18 23.5 16.5C23.5 19.82 20.82 22.5 17.5 22.5Z" stroke="white" stroke-width="1.5"/>
  </g>
  <defs>
    <filter id="filter0_d_1_2" x="0" y="0" width="35" height="91" filterUnits="userSpaceOnUse" color-interpolation-filters="sRGB">
      <feFlood flood-opacity="0" result="BackgroundImageFix"/>
      <feColorMatrix in="SourceAlpha" type="matrix" values="0 0 0 0 0 0 0 0 0 0 0 0 0 0 0 0 0 0 127 0" result="hardAlpha"/>
      <feOffset dy="4"/>
      <feGaussianBlur stdDeviation="2"/>
      <feComposite in2="hardAlpha" operator="out"/>
      <feColorMatrix type="matrix" values="0 0 0 0 0 0 0 0 0 0 0 0 0 0 0 0 0 0 0.25 0"/>
      <feBlend mode="normal" in2="BackgroundImageFix" result="effect1_dropShadow_1_2"/>
      <feBlend mode="normal" in="SourceGraphic" in2="effect1_dropShadow_1_2" result="shape"/>
    </filter>
  </defs>
</svg>